<svg xmlns="http://www.w3.org/2000/svg" viewBox="0 0 64 64" role="img" aria-label="DCA Bot">
  <defs>
    <linearGradient id="bg" x1="0" y1="0" x2="0" y2="1">
      <stop offset="0%" stop-color="#1a2340"/>
      <stop offset="100%" stop-color="#0f1629"/>
    </linearGradient>
    <linearGradient id="coin" x1="0" y1="0" x2="0" y2="1">
      <stop offset="0%" stop-color="#fbbf24"/>
      <stop offset="100%" stop-color="#f59e0b"/>
    </linearGradient>
  </defs>
  <rect width="64" height="64" rx="14" fill="url(#bg)"/>
  <circle cx="32" cy="32" r="20" fill="url(#coin)"/>
  <path
    d="M36.6 31.4c1.9-1 3.1-2.8 3.1-5 0-3.1-2.4-5.3-6.1-5.7V17h-3.3v3.6h-2.5V17h-3.3v3.7H20v3.1h2v16.4h-2V43h4.5v3.7h3.3V43h2.5v3.7h3.3v-3.7c4.3-.3 6.9-2.7 6.9-6.2 0-2.6-1.5-4.6-3.9-5.4zM27.8 24h5.4c1.9 0 3.1 1 3.1 2.6s-1.2 2.6-3.1 2.6h-5.4V24zm6 15.8h-6v-5.6h6c2.3 0 3.6 1 3.6 2.8s-1.3 2.8-3.6 2.8z"
    fill="#0f1629"
  />
</svg>
